# xmcd CD database file
#
# Track frame offsets:
#	150
#	14603
#	29284
#	43991
#	62188
#	82604
#	97070
#	111061
#	127747
#	142092
#	156178
#	169066
#	184128
#	196277
#	213499
#	227312
#
# Disc length: 3261 seconds
#
# Revision: 0
# Processed by: cddbd v1.5.1PL0 Copyright (c) Steve Scherf et al.
# Submitted via: CDex 1.50
#
DISCID=d60cbb10
DTITLE=George  Royter - Time , Tears And Tales
DYEAR=2005
DGENRE=Country
TTITLE0=George Royter =Old Time Family Dance
TTITLE1=George Royter =The Saturday Dance
TTITLE2=George Royter =You Kids Have Got It Easy
TTITLE3=George Royter =The Chook Farmers Ball
TTITLE4=George Royter =Sleeper Cutters
TTITLE5=George Royter =People In The Street
TTITLE6=George Royter =Here With You
TTITLE7=George Royter =How Many Tears
TTITLE8=George Royter =Rusho
TTITLE9=George Royter =Ship In The Harbour
TTITLE10=George Royter =The Grader Man
TTITLE11=George Royter =Young George Davidson
TTITLE12=George Royter =The Lawrence Frost
TTITLE13=George Royter =The Land Of Alexander Berry
TTITLE14=George Royter =A Tale To Tell
TTITLE15=George Royter =Dust On The Violin
EXTD=YEAR: 2005
EXTT0=
EXTT1=
EXTT2=
EXTT3=
EXTT4=
EXTT5=
EXTT6=
EXTT7=
EXTT8=
EXTT9=
EXTT10=
EXTT11=
EXTT12=
EXTT13=
EXTT14=
EXTT15=
PLAYORDER=
